<?xml version="1.0" standalone="no"?>
<!DOCTYPE svg PUBLIC "-//W3C//DTD SVG 20010904//EN"
 "http://www.w3.org/TR/2001/REC-SVG-20010904/DTD/svg10.dtd">
<svg version="1.0" xmlns="http://www.w3.org/2000/svg"
 width="260.000000pt" height="260.000000pt" viewBox="0 0 260.000000 260.000000"
 preserveAspectRatio="xMidYMid meet">
<metadata>
Created by potrace 1.14, written by Peter Selinger 2001-2017
</metadata>
<g transform="translate(0.000000,260.000000) scale(0.100000,-0.100000)"
fill="#000000" stroke="none">
<path d="M430 1390 l0 -890 215 0 216 0 0 288 c0 158 0 296 0 307 -2 63 0 129
4 133 2 2 121 4 264 4 149 0 264 4 267 9 4 8 8 235 5 309 -1 14 -36 16 -271
15 l-270 0 0 190 0 191 363 0 362 0 3 167 2 167 -580 0 -580 0 0 -890z"/>
<path d="M1780 810 c0 -5 -8 -10 -18 -10 -10 0 -23 -5 -30 -12 -7 -7 -12 -8
-12 -3 0 4 -9 0 -20 -10 -11 -10 -20 -15 -20 -12 0 3 -20 -13 -43 -36 -24 -23
-42 -45 -41 -48 2 -4 -3 -12 -11 -19 -8 -7 -13 -16 -10 -20 3 -5 1 -11 -5 -15
-5 -3 -10 -15 -10 -26 0 -10 -4 -19 -10 -19 -6 0 -10 -33 -10 -80 0 -61 4 -82
14 -86 8 -3 12 -12 9 -19 -2 -8 3 -29 13 -47 21 -38 94 -118 107 -118 5 0 21
-8 35 -19 15 -10 35 -17 45 -16 9 2 17 -1 17 -6 0 -11 153 -12 164 -2 4 5 11
8 14 9 26 3 62 18 62 25 0 5 7 9 15 9 17 0 94 79 95 98 0 6 5 12 10 12 6 0 10
7 10 15 0 8 4 15 9 15 5 0 8 8 6 18 -1 9 2 22 7 29 5 7 7 45 5 85 -7 96 -10
111 -30 141 -9 15 -17 29 -17 33 0 13 -86 90 -115 103 -16 7 -43 19 -58 27
-33 16 -177 20 -177 4z"/>
</g>
</svg>
